<svg width="34" height="37" viewBox="0 0 34 37" fill="none" xmlns="http://www.w3.org/2000/svg">
<g clip-path="url(#clip0_24_5)">
<path d="M13.3108 3.69981C10.5772 5.43419 11.3132 10.7529 14.6776 14.3373C18.2523 18.0373 20.8807 17.6904 24.2451 13.0654C26.453 9.82794 26.8735 7.28419 25.4016 4.74044C24.3502 2.89044 15.729 2.19668 13.3108 3.69981ZM17.4112 5.78106C17.8317 6.47481 18.7779 6.59044 19.8293 5.89669C24.4553 3.35293 25.8221 8.44044 21.6166 12.7186L18.9882 15.3779L16.3598 12.7186C14.8879 11.2154 13.7314 9.13419 13.7314 8.09356C13.7314 4.85606 16.0444 3.46856 17.4112 5.78106Z" fill="white"/>
<path d="M2.37654 19.7718C-0.357026 20.9281 -0.357026 20.8124 1.95599 28.3281C3.84846 34.4562 5.84607 35.3812 9.63101 31.5656C10.8927 30.4093 12.5749 30.1781 15.0981 30.6406C18.1471 31.3343 20.1447 30.6406 26.3478 27.0562C31.4995 24.1656 33.7074 22.1999 33.4972 20.9281C33.1817 19.6562 32.1304 19.1937 30.0276 19.3093C28.2403 19.5406 25.717 19.7718 24.2451 19.8874C22.7732 20.0031 17.8317 19.7718 13.2057 19.4249C8.57964 18.9624 3.74332 19.1937 2.37654 19.7718ZM20.9858 22.6624C21.1961 22.8937 19.7242 23.1249 17.6214 23.1249C15.5187 23.1249 13.5211 23.5874 13.2057 24.2812C12.3646 25.7843 21.4064 25.7843 22.7732 24.2812C23.8245 23.1249 30.5533 20.5812 30.5533 21.3906C30.5533 21.6218 27.9249 23.4718 24.8759 25.4374C19.7242 28.5593 18.4625 28.9062 13.8365 28.2124C10.4721 27.7499 8.4745 26.8249 8.4745 26.0156C8.4745 25.0906 8.15909 23.5874 7.84368 22.5468C7.21285 20.9281 7.84368 20.6968 13.8365 21.5062C17.5163 21.9687 20.7756 22.4312 20.9858 22.6624ZM6.37176 26.1312C7.6334 30.1781 7.10772 32.6062 5.42552 30.5249C5.00497 29.9468 4.05874 27.7499 3.42791 25.6687C2.48168 22.6624 2.58682 21.9687 3.74333 21.9687C4.47929 21.9687 5.74093 23.8187 6.37176 26.1312Z" fill="white"/>
</g>
<defs>
<clipPath id="clip0_24_5">
<rect x="0.0634766" width="33.6439" height="37" rx="16.822" fill="white"/>
</clipPath>
</defs>
</svg>
