<svg width="34" height="37" viewBox="0 0 34 37" fill="none" xmlns="http://www.w3.org/2000/svg">
<g clip-path="url(#clip0_30_97)">
<path d="M13.2473 3.69981C10.5137 5.43419 11.2497 10.7529 14.6141 14.3373C18.1887 18.0373 20.8171 17.6904 24.1815 13.0654C26.3894 9.82794 26.81 7.28419 25.338 4.74044C24.2867 2.89044 15.6654 2.19668 13.2473 3.69981ZM17.3476 5.78106C17.7682 6.47481 18.7144 6.59044 19.7658 5.89669C24.3918 3.35293 25.7586 8.44044 21.5531 12.7186L18.9247 15.3779L16.2962 12.7186C14.8243 11.2154 13.6678 9.13419 13.6678 8.09356C13.6678 4.85606 15.9808 3.46856 17.3476 5.78106Z" fill="#006633"/>
<path d="M2.313 19.7718C-0.420564 20.9281 -0.420564 20.8124 1.89245 28.3281C3.78492 34.4562 5.78253 35.3812 9.56747 31.5656C10.8291 30.4093 12.5113 30.1781 15.0346 30.6406C18.0836 31.3343 20.0812 30.6406 26.2843 27.0562C31.436 24.1656 33.6439 22.1999 33.4336 20.9281C33.1182 19.6562 32.0668 19.1937 29.9641 19.3093C28.1768 19.5406 25.6535 19.7718 24.1815 19.8874C22.7096 20.0031 17.7682 19.7718 13.1421 19.4249C8.5161 18.9624 3.67979 19.1937 2.313 19.7718ZM20.9223 22.6624C21.1326 22.8937 19.6606 23.1249 17.5579 23.1249C15.4552 23.1249 13.4575 23.5874 13.1421 24.2812C12.301 25.7843 21.3428 25.7843 22.7096 24.2812C23.761 23.1249 30.4898 20.5812 30.4898 21.3906C30.4898 21.6218 27.8613 23.4718 24.8124 25.4374C19.6606 28.5593 18.399 28.9062 13.773 28.2124C10.4086 27.7499 8.41096 26.8249 8.41096 26.0156C8.41096 25.0906 8.09555 23.5874 7.78014 22.5468C7.14932 20.9281 7.78014 20.6968 13.773 21.5062C17.4528 21.9687 20.712 22.4312 20.9223 22.6624ZM6.30822 26.1312C7.56986 30.1781 7.04418 32.6062 5.36198 30.5249C4.94143 29.9468 3.9952 27.7499 3.36438 25.6687C2.41814 22.6624 2.52328 21.9687 3.67979 21.9687C4.41575 21.9687 5.67739 23.8187 6.30822 26.1312Z" fill="#006633"/>
</g>
<defs>
<clipPath id="clip0_30_97">
<rect width="33.6439" height="37" rx="16.822" fill="white"/>
</clipPath>
</defs>
</svg>
